<svg xmlns="http://www.w3.org/2000/svg" xmlns:xlink="http://www.w3.org/1999/xlink" width="120" zoomAndPan="magnify" viewBox="0 0 90 30.000001" height="40" preserveAspectRatio="xMidYMid meet" version="1.0"><defs><g/></defs><g fill="#292c27" fill-opacity="1"><g transform="translate(1.451611, 19.25048)"><g><path d="M 6.5625 0.171875 C 5.457031 0.171875 4.484375 -0.0546875 3.640625 -0.515625 C 2.796875 -0.972656 2.132812 -1.664062 1.65625 -2.59375 C 1.175781 -3.519531 0.9375 -4.65625 0.9375 -6 C 0.9375 -7.351562 1.175781 -8.492188 1.65625 -9.421875 C 2.132812 -10.347656 2.796875 -11.039062 3.640625 -11.5 C 4.484375 -11.957031 5.457031 -12.1875 6.5625 -12.1875 C 7.71875 -12.1875 8.695312 -11.957031 9.5 -11.5 C 10.3125 -11.050781 10.890625 -10.363281 11.234375 -9.4375 L 9.5 -8.375 L 9.296875 -8.390625 C 9.046875 -9.015625 8.695312 -9.460938 8.25 -9.734375 C 7.8125 -10.003906 7.25 -10.140625 6.5625 -10.140625 C 5.5625 -10.140625 4.78125 -9.804688 4.21875 -9.140625 C 3.664062 -8.484375 3.390625 -7.4375 3.390625 -6 C 3.390625 -4.570312 3.664062 -3.523438 4.21875 -2.859375 C 4.78125 -2.203125 5.5625 -1.875 6.5625 -1.875 C 8.125 -1.875 9.082031 -2.632812 9.4375 -4.15625 L 9.640625 -4.15625 L 11.390625 -3.25 C 11.054688 -2.101562 10.492188 -1.242188 9.703125 -0.671875 C 8.910156 -0.109375 7.863281 0.171875 6.5625 0.171875 Z M 6.5625 0.171875 "/></g></g></g><g fill="#292c27" fill-opacity="1"><g transform="translate(13.226654, 19.25048)"><g><path d="M 3.53125 0.171875 C 2.945312 0.171875 2.441406 0.0664062 2.015625 -0.140625 C 1.585938 -0.359375 1.257812 -0.671875 1.03125 -1.078125 C 0.800781 -1.492188 0.6875 -1.992188 0.6875 -2.578125 C 0.6875 -3.117188 0.800781 -3.570312 1.03125 -3.9375 C 1.257812 -4.300781 1.613281 -4.597656 2.09375 -4.828125 C 2.582031 -5.054688 3.21875 -5.234375 4 -5.359375 C 4.539062 -5.453125 4.953125 -5.550781 5.234375 -5.65625 C 5.515625 -5.757812 5.703125 -5.875 5.796875 -6 C 5.898438 -6.132812 5.953125 -6.300781 5.953125 -6.5 C 5.953125 -6.789062 5.847656 -7.015625 5.640625 -7.171875 C 5.441406 -7.328125 5.109375 -7.40625 4.640625 -7.40625 C 4.128906 -7.40625 3.644531 -7.289062 3.1875 -7.0625 C 2.738281 -6.84375 2.347656 -6.546875 2.015625 -6.171875 L 1.84375 -6.171875 L 0.890625 -7.609375 C 1.347656 -8.117188 1.910156 -8.515625 2.578125 -8.796875 C 3.242188 -9.085938 3.96875 -9.234375 4.75 -9.234375 C 5.945312 -9.234375 6.8125 -8.976562 7.34375 -8.46875 C 7.882812 -7.957031 8.15625 -7.234375 8.15625 -6.296875 L 8.15625 -2.359375 C 8.15625 -1.960938 8.332031 -1.765625 8.6875 -1.765625 C 8.832031 -1.765625 8.96875 -1.785156 9.09375 -1.828125 L 9.21875 -1.796875 L 9.375 -0.21875 C 9.25 -0.132812 9.070312 -0.0664062 8.84375 -0.015625 C 8.625 0.0351562 8.378906 0.0625 8.109375 0.0625 C 7.566406 0.0625 7.144531 -0.0390625 6.84375 -0.25 C 6.539062 -0.457031 6.320312 -0.78125 6.1875 -1.21875 L 6.015625 -1.234375 C 5.566406 -0.296875 4.738281 0.171875 3.53125 0.171875 Z M 4.25 -1.53125 C 4.78125 -1.53125 5.203125 -1.707031 5.515625 -2.0625 C 5.828125 -2.414062 5.984375 -2.90625 5.984375 -3.53125 L 5.984375 -4.453125 L 5.828125 -4.484375 C 5.691406 -4.378906 5.515625 -4.285156 5.296875 -4.203125 C 5.078125 -4.128906 4.757812 -4.0625 4.34375 -4 C 3.84375 -3.914062 3.484375 -3.769531 3.265625 -3.5625 C 3.054688 -3.363281 2.953125 -3.082031 2.953125 -2.71875 C 2.953125 -2.332031 3.066406 -2.035156 3.296875 -1.828125 C 3.523438 -1.628906 3.84375 -1.53125 4.25 -1.53125 Z M 4.25 -1.53125 "/></g></g></g><g fill="#292c27" fill-opacity="1"><g transform="translate(22.776452, 19.25048)"><g><path d="M 1.3125 0 L 1.3125 -9.0625 L 3.484375 -9.0625 L 3.484375 -7.84375 L 3.671875 -7.8125 C 3.960938 -8.300781 4.304688 -8.660156 4.703125 -8.890625 C 5.097656 -9.117188 5.609375 -9.234375 6.234375 -9.234375 C 6.910156 -9.234375 7.457031 -9.097656 7.875 -8.828125 C 8.289062 -8.554688 8.597656 -8.160156 8.796875 -7.640625 L 8.96875 -7.640625 C 9.25 -8.179688 9.609375 -8.582031 10.046875 -8.84375 C 10.484375 -9.101562 11.03125 -9.234375 11.6875 -9.234375 C 13.570312 -9.234375 14.515625 -8.1875 14.515625 -6.09375 L 14.515625 0 L 12.234375 0 L 12.234375 -5.8125 C 12.234375 -6.34375 12.128906 -6.722656 11.921875 -6.953125 C 11.710938 -7.191406 11.378906 -7.3125 10.921875 -7.3125 C 9.671875 -7.3125 9.046875 -6.476562 9.046875 -4.8125 L 9.046875 0 L 6.765625 0 L 6.765625 -5.8125 C 6.765625 -6.34375 6.660156 -6.722656 6.453125 -6.953125 C 6.242188 -7.191406 5.910156 -7.3125 5.453125 -7.3125 C 4.859375 -7.3125 4.394531 -7.113281 4.0625 -6.71875 C 3.738281 -6.332031 3.578125 -5.710938 3.578125 -4.859375 L 3.578125 0 Z M 1.3125 0 "/></g></g></g><g fill="#292c27" fill-opacity="1"><g transform="translate(38.443664, 19.25048)"><g><path d="M 1.3125 3.671875 L 1.3125 -9.0625 L 3.578125 -9.0625 L 3.578125 -7.875 L 3.75 -7.84375 C 4.019531 -8.300781 4.378906 -8.644531 4.828125 -8.875 C 5.273438 -9.113281 5.800781 -9.234375 6.40625 -9.234375 C 7.132812 -9.234375 7.769531 -9.0625 8.3125 -8.71875 C 8.863281 -8.375 9.289062 -7.847656 9.59375 -7.140625 C 9.894531 -6.441406 10.046875 -5.570312 10.046875 -4.53125 C 10.046875 -3.488281 9.882812 -2.617188 9.5625 -1.921875 C 9.25 -1.222656 8.804688 -0.695312 8.234375 -0.34375 C 7.660156 0 7.003906 0.171875 6.265625 0.171875 C 5.703125 0.171875 5.210938 0.078125 4.796875 -0.109375 C 4.390625 -0.296875 4.039062 -0.59375 3.75 -1 L 3.578125 -0.96875 L 3.578125 3.671875 Z M 5.625 -1.765625 C 6.300781 -1.765625 6.816406 -1.984375 7.171875 -2.421875 C 7.523438 -2.867188 7.703125 -3.570312 7.703125 -4.53125 C 7.703125 -5.488281 7.523438 -6.191406 7.171875 -6.640625 C 6.816406 -7.085938 6.300781 -7.3125 5.625 -7.3125 C 4.988281 -7.3125 4.484375 -7.078125 4.109375 -6.609375 C 3.742188 -6.148438 3.5625 -5.457031 3.5625 -4.53125 C 3.5625 -3.601562 3.742188 -2.910156 4.109375 -2.453125 C 4.484375 -1.992188 4.988281 -1.765625 5.625 -1.765625 Z M 5.625 -1.765625 "/></g></g></g><g fill="#30af5b" fill-opacity="1"><g transform="translate(50.055384, 19.25048)"><g><path d="M 3.765625 0.171875 C 2.941406 0.171875 2.316406 -0.046875 1.890625 -0.484375 C 1.460938 -0.929688 1.25 -1.601562 1.25 -2.5 L 1.25 -12.703125 L 3.53125 -12.703125 L 3.53125 -2.59375 C 3.53125 -2.039062 3.757812 -1.765625 4.21875 -1.765625 C 4.34375 -1.765625 4.484375 -1.785156 4.640625 -1.828125 L 4.75 -1.796875 L 4.953125 -0.046875 C 4.828125 0.0234375 4.660156 0.078125 4.453125 0.109375 C 4.242188 0.148438 4.015625 0.171875 3.765625 0.171875 Z M 3.765625 0.171875 "/></g></g></g><g fill="#30af5b" fill-opacity="1"><g transform="translate(55.261366, 19.25048)"><g><path d="M 5.265625 0.171875 C 4.378906 0.171875 3.597656 -0.0078125 2.921875 -0.375 C 2.253906 -0.738281 1.734375 -1.269531 1.359375 -1.96875 C 0.992188 -2.675781 0.8125 -3.53125 0.8125 -4.53125 C 0.8125 -5.519531 0.992188 -6.367188 1.359375 -7.078125 C 1.734375 -7.785156 2.253906 -8.320312 2.921875 -8.6875 C 3.597656 -9.050781 4.378906 -9.234375 5.265625 -9.234375 C 6.148438 -9.234375 6.925781 -9.050781 7.59375 -8.6875 C 8.269531 -8.320312 8.796875 -7.785156 9.171875 -7.078125 C 9.546875 -6.367188 9.734375 -5.519531 9.734375 -4.53125 C 9.734375 -3.53125 9.546875 -2.675781 9.171875 -1.96875 C 8.796875 -1.269531 8.269531 -0.738281 7.59375 -0.375 C 6.925781 -0.0078125 6.148438 0.171875 5.265625 0.171875 Z M 5.265625 -1.765625 C 6.671875 -1.765625 7.375 -2.6875 7.375 -4.53125 C 7.375 -5.488281 7.191406 -6.191406 6.828125 -6.640625 C 6.472656 -7.085938 5.953125 -7.3125 5.265625 -7.3125 C 3.859375 -7.3125 3.15625 -6.382812 3.15625 -4.53125 C 3.15625 -2.6875 3.859375 -1.765625 5.265625 -1.765625 Z M 5.265625 -1.765625 "/></g></g></g><g fill="#30af5b" fill-opacity="1"><g transform="translate(65.788287, 19.25048)"><g><path d="M 1.3125 0 L 1.3125 -9.0625 L 3.515625 -9.0625 L 3.515625 -7.71875 L 3.6875 -7.6875 C 3.90625 -8.1875 4.191406 -8.550781 4.546875 -8.78125 C 4.910156 -9.019531 5.34375 -9.140625 5.84375 -9.140625 C 6.363281 -9.140625 6.757812 -9.050781 7.03125 -8.875 L 6.640625 -6.921875 L 6.46875 -6.890625 C 6.320312 -6.941406 6.175781 -6.984375 6.03125 -7.015625 C 5.894531 -7.046875 5.726562 -7.0625 5.53125 -7.0625 C 4.894531 -7.0625 4.410156 -6.835938 4.078125 -6.390625 C 3.742188 -5.941406 3.578125 -5.222656 3.578125 -4.234375 L 3.578125 0 Z M 1.3125 0 "/></g></g></g><g fill="#30af5b" fill-opacity="1"><g transform="translate(72.891109, 19.25048)"><g><path d="M 8.953125 -4.015625 L 3.125 -4.015625 C 3.195312 -3.222656 3.421875 -2.648438 3.796875 -2.296875 C 4.179688 -1.941406 4.707031 -1.765625 5.375 -1.765625 C 5.894531 -1.765625 6.316406 -1.859375 6.640625 -2.046875 C 6.960938 -2.242188 7.222656 -2.539062 7.421875 -2.9375 L 7.59375 -2.9375 L 9.109375 -1.96875 C 8.804688 -1.332031 8.359375 -0.816406 7.765625 -0.421875 C 7.171875 -0.0234375 6.375 0.171875 5.375 0.171875 C 4.4375 0.171875 3.625 -0.00390625 2.9375 -0.359375 C 2.257812 -0.710938 1.734375 -1.238281 1.359375 -1.9375 C 0.992188 -2.644531 0.8125 -3.507812 0.8125 -4.53125 C 0.8125 -5.5625 1.003906 -6.425781 1.390625 -7.125 C 1.785156 -7.832031 2.3125 -8.359375 2.96875 -8.703125 C 3.632812 -9.054688 4.378906 -9.234375 5.203125 -9.234375 C 6.484375 -9.234375 7.460938 -8.894531 8.140625 -8.21875 C 8.828125 -7.539062 9.171875 -6.539062 9.171875 -5.21875 C 9.171875 -4.75 9.15625 -4.378906 9.125 -4.109375 Z M 7 -5.484375 C 6.976562 -6.179688 6.816406 -6.6875 6.515625 -7 C 6.222656 -7.3125 5.785156 -7.46875 5.203125 -7.46875 C 4.054688 -7.46875 3.382812 -6.804688 3.1875 -5.484375 Z M 7 -5.484375 "/></g></g></g><g fill="#30af5b" fill-opacity="1"><g transform="translate(82.736514, 19.25048)"><g><path d="M 2.3125 0.078125 C 2.019531 0.078125 1.765625 0.0195312 1.546875 -0.09375 C 1.328125 -0.21875 1.15625 -0.382812 1.03125 -0.59375 C 0.914062 -0.800781 0.859375 -1.035156 0.859375 -1.296875 C 0.859375 -1.554688 0.914062 -1.789062 1.03125 -2 C 1.15625 -2.207031 1.328125 -2.367188 1.546875 -2.484375 C 1.765625 -2.609375 2.019531 -2.671875 2.3125 -2.671875 C 2.613281 -2.671875 2.875 -2.613281 3.09375 -2.5 C 3.3125 -2.382812 3.476562 -2.222656 3.59375 -2.015625 C 3.71875 -1.804688 3.78125 -1.570312 3.78125 -1.3125 C 3.78125 -0.90625 3.644531 -0.570312 3.375 -0.3125 C 3.113281 -0.0507812 2.757812 0.078125 2.3125 0.078125 Z M 2.3125 0.078125 "/></g></g></g></svg>